# xmcd CD database file
#
# Track frame offsets:
#	150
#	13853
#	26502
#	39508
#	51873
#	65100
#	77765
#	86625
#	98796
#	110883
#	123250
#	133495
#	148662
#	161505
#	175042
#	188820
#	203428
#	217970
#	242282
#	252463
#
# Disc length: 3538 seconds
#
# Revision: 0
# Processed by: cddbd v1.5.1PL2 Copyright (c) Steve Scherf et al.
# Submitted via: CDex 1.51
#
DISCID=1a0dd014
DTITLE=Bobby Bare - The Essential
DYEAR=1900
DGENRE=Country
TTITLE0=Bobby Bare - All American Boy
TTITLE1=Bobby Bare - Shame On Me
TTITLE2=Bobby Bare - Detroit City
TTITLE3=Bobby Bare - 500 Miles Away From Home
TTITLE4=Bobby Bare - Miller's Cave
TTITLE5=Bobby Bare - Four Strong Winds
TTITLE6=Bobby Bare - A Dear John Letter
TTITLE7=Bobby Bare - It's All Right
TTITLE8=Bobby Bare - The Streets Of Baltimore
TTITLE9=Bobby Bare - The Game Of Triangles
TTITLE10=Bobby Bare - Charleston Railroad Tavern
TTITLE11=Bobby Bare - Margie's At The Lincoln Park I
TTITLE12=Bobby Bare - Bless America Again
TTITLE13=Bobby Bare - Your Husband My Wife
TTITLE14=Bobby Bare - Ride Me Down Easy
TTITLE15=Bobby Bare - Daddy What If
TTITLE16=Bobby Bare - Marie Laveau
TTITLE17=Bobby Bare - The Winner
TTITLE18=Bobby Bare - Dropkick Me, Jesus
TTITLE19=Bobby Bare - Vegas
EXTD=
EXTT0=
EXTT1=
EXTT2=
EXTT3=
EXTT4=
EXTT5=
EXTT6=
EXTT7=
EXTT8=
EXTT9=
EXTT10=
EXTT11=
EXTT12=
EXTT13=
EXTT14=
EXTT15=
EXTT16=
EXTT17=
EXTT18=
EXTT19=
PLAYORDER=
